<svg width="184" height="56" viewBox="0 0 184 56" fill="none" xmlns="http://www.w3.org/2000/svg">
<g clip-path="url(#clip0_1549_38)">
<path d="M175.825 54.5605H7.0246C3.51723 54.5605 0.662354 51.6975 0.662354 48.1928V7.10389C0.662354 3.59785 3.51723 0.745674 7.0246 0.745674H175.825C179.332 0.745674 182.288 3.59785 182.288 7.10389V48.1928C182.288 51.6975 179.332 54.5605 175.825 54.5605Z" fill="#A6A6A6"/>
<path d="M180.986 48.1942C180.986 51.041 178.681 53.347 175.828 53.347H7.02669C4.17585 53.347 1.86182 51.041 1.86182 48.1942V7.10255C1.86182 4.2571 4.17585 1.94306 7.02669 1.94306H175.827C178.681 1.94306 180.985 4.2571 180.985 7.10255L180.986 48.1942Z" fill="black"/>
<path d="M41.195 27.3625C41.156 23.0264 44.7454 20.9169 44.9096 20.8187C42.8767 17.8548 39.7258 17.4499 38.6187 17.4175C35.9723 17.139 33.4054 19.0011 32.0573 19.0011C30.6823 19.0011 28.6064 17.4445 26.3691 17.4902C23.4899 17.5347 20.7965 19.2015 19.3193 21.7901C16.2708 27.0678 18.5444 34.824 21.4651 39.0901C22.9263 41.1794 24.6335 43.5123 26.8682 43.4303C29.0544 43.3401 29.871 42.0365 32.5093 42.0365C35.1234 42.0365 35.8903 43.4303 38.1693 43.3778C40.5156 43.3401 41.9928 41.279 43.4028 39.1708C45.0912 36.7761 45.7693 34.4176 45.7962 34.2965C45.741 34.2778 41.2394 32.5596 41.195 27.3625Z" fill="white"/>
<path d="M36.889 14.6111C38.0648 13.1406 38.8694 11.1401 38.646 9.1099C36.9442 9.18524 34.8157 10.2871 33.5901 11.7253C32.5058 12.9926 31.5372 15.0699 31.7874 17.0234C33.6991 17.166 35.662 16.0587 36.889 14.6111Z" fill="white"/>
<path d="M72.8361 43.1303H69.7808L68.1071 37.8713H62.2898L60.6955 43.1303H57.7209L63.4844 25.226H67.0443L72.8361 43.1303ZM67.6027 35.6647L66.0892 30.9896C65.929 30.512 65.6291 29.3873 65.1864 27.6168H65.1325C64.9563 28.3782 64.6724 29.5031 64.2823 30.9896L62.7956 35.6647H67.6027Z" fill="white"/>
<path d="M87.6579 36.5164C87.6579 38.712 87.0646 40.4476 85.8781 41.7217C84.8151 42.8559 83.4953 43.4222 81.9199 43.4222C80.2193 43.4222 78.9978 42.8114 78.2537 41.5898H78.2V48.3907H75.3316V34.4701C75.3316 33.0898 75.2953 31.6731 75.2253 30.2202H77.7479L77.908 32.2664H77.9618C78.9183 30.7246 80.3701 29.955 82.3181 29.955C83.841 29.955 85.1125 30.5565 86.1296 31.7606C87.1494 32.966 87.6579 34.5508 87.6579 36.5164ZM84.7358 36.6214C84.7358 35.3648 84.4532 34.3289 83.8855 33.5136C83.2653 32.6633 82.4325 32.2381 81.3885 32.2381C80.6808 32.2381 80.0377 32.475 79.4633 32.9418C78.8874 33.4126 78.5107 34.0276 78.3346 34.789C78.2457 35.1442 78.2014 35.4348 78.2014 35.6635V37.816C78.2014 38.7552 78.4892 39.5475 79.065 40.1947C79.6409 40.8419 80.3888 41.1647 81.3091 41.1647C82.3894 41.1647 83.2303 40.7476 83.8316 39.9162C84.4345 39.0835 84.7358 37.9856 84.7358 36.6214Z" fill="white"/>
<path d="M102.507 36.5164C102.507 38.712 101.914 40.4476 100.726 41.7217C99.6641 42.8559 98.3443 43.4222 96.7689 43.4222C95.0683 43.4222 93.8468 42.8114 93.1041 41.5898H93.0503V48.3907H90.1819V34.4701C90.1819 33.0898 90.1456 31.6731 90.0757 30.2202H92.5983L92.7584 32.2664H92.8121C93.7673 30.7246 95.2191 29.955 97.1685 29.955C98.6902 29.955 99.9615 30.5565 100.981 31.7606C101.997 32.966 102.507 34.5508 102.507 36.5164ZM99.5848 36.6214C99.5848 35.3648 99.3009 34.3289 98.7331 33.5136C98.1129 32.6633 97.2829 32.2381 96.2375 32.2381C95.5284 32.2381 94.8867 32.475 94.311 32.9418C93.7351 33.4126 93.3597 34.0276 93.1835 34.789C93.0961 35.1442 93.0503 35.4348 93.0503 35.6635V37.816C93.0503 38.7552 93.3382 39.5475 93.9114 40.1947C94.4871 40.8405 95.2351 41.1647 96.158 41.1647C97.2384 41.1647 98.0793 40.7476 98.6806 39.9162C99.2834 39.0835 99.5848 37.9856 99.5848 36.6214Z" fill="white"/>
<path d="M119.109 38.1094C119.109 39.6323 118.581 40.8714 117.519 41.8279C116.353 42.8733 114.729 43.3953 112.642 43.3953C110.716 43.3953 109.171 43.024 108.002 42.28L108.667 39.8893C109.926 40.6507 111.308 41.0329 112.813 41.0329C113.893 41.0329 114.734 40.788 115.338 40.3009C115.94 39.8139 116.24 39.16 116.24 38.3447C116.24 37.6182 115.992 37.0062 115.496 36.5097C115.002 36.0133 114.177 35.5518 113.026 35.1253C109.891 33.9561 108.325 32.2436 108.325 29.9913C108.325 28.5196 108.874 27.3127 109.973 26.3737C111.068 25.4332 112.529 24.9637 114.356 24.9637C115.985 24.9637 117.339 25.2477 118.419 25.814L117.702 28.1523C116.693 27.6033 115.552 27.3289 114.275 27.3289C113.266 27.3289 112.478 27.5777 111.913 28.073C111.435 28.5155 111.196 29.0551 111.196 29.6941C111.196 30.4016 111.469 30.9869 112.018 31.447C112.496 31.8722 113.363 32.3323 114.623 32.8287C116.163 33.449 117.294 34.1741 118.022 35.0056C118.747 35.8343 119.109 36.8716 119.109 38.1094Z" fill="white"/>
<path d="M128.592 32.3725H125.43V38.6408C125.43 40.2349 125.987 41.0314 127.104 41.0314C127.616 41.0314 128.042 40.987 128.378 40.8982L128.457 43.0764C127.892 43.2876 127.148 43.3939 126.227 43.3939C125.094 43.3939 124.209 43.0481 123.57 42.358C122.933 41.6664 122.613 40.5068 122.613 38.8775V32.37H120.729V30.2173H122.613V27.8535L125.43 27.0032V30.2173H128.592V32.3725Z" fill="white"/>
<path d="M142.857 36.5689C142.857 38.5533 142.289 40.1826 141.157 41.4566C139.969 42.7683 138.392 43.4221 136.426 43.4221C134.532 43.4221 133.024 42.7938 131.899 41.5373C130.774 40.2808 130.212 38.6945 130.212 36.7828C130.212 34.7822 130.791 33.1435 131.952 31.8694C133.11 30.594 134.673 29.9564 136.639 29.9564C138.533 29.9564 140.057 30.5846 141.208 31.8425C142.308 33.0629 142.857 34.6383 142.857 36.5689ZM139.881 36.6617C139.881 35.471 139.627 34.4498 139.112 33.5983C138.51 32.5678 137.651 32.0538 136.537 32.0538C135.384 32.0538 134.508 32.5691 133.906 33.5983C133.391 34.4512 133.137 35.4886 133.137 36.7156C133.137 37.9061 133.391 38.9273 133.906 39.7776C134.527 40.8081 135.393 41.3221 136.511 41.3221C137.606 41.3221 138.466 40.7974 139.086 39.7506C139.615 38.8829 139.881 37.851 139.881 36.6617Z" fill="white"/>
<path d="M152.181 32.7427C151.897 32.6902 151.595 32.6633 151.277 32.6633C150.268 32.6633 149.488 33.0441 148.939 33.8069C148.461 34.4795 148.222 35.3298 148.222 36.3564V43.1303H145.355L145.382 34.2858C145.382 32.7978 145.345 31.4431 145.274 30.2215H147.772L147.877 32.6916H147.957C148.259 31.8427 148.737 31.1592 149.391 30.6465C150.03 30.1852 150.72 29.955 151.464 29.955C151.729 29.955 151.969 29.9739 152.181 30.0075V32.7427Z" fill="white"/>
<path d="M165.009 36.0645C165.009 36.5783 164.976 37.0116 164.903 37.3653H156.299C156.332 38.6408 156.749 39.6162 157.548 40.2888C158.273 40.8903 159.211 41.1916 160.361 41.1916C161.636 41.1916 162.798 40.9885 163.844 40.5808L164.293 42.572C163.072 43.1047 161.63 43.3697 159.965 43.3697C157.964 43.3697 156.391 42.7805 155.249 41.6033C154.108 40.4261 153.535 38.8452 153.535 36.8622C153.535 34.9154 154.067 33.2943 155.131 32.0014C156.245 30.6211 157.751 29.9309 159.645 29.9309C161.506 29.9309 162.915 30.6211 163.871 32.0014C164.628 33.0978 165.009 34.4541 165.009 36.0645ZM162.274 35.3204C162.293 34.4701 162.105 33.7356 161.717 33.1154C161.221 32.3176 160.458 31.9194 159.431 31.9194C158.494 31.9194 157.731 32.3082 157.148 33.0884C156.67 33.7087 156.387 34.4527 156.299 35.319H162.274V35.3204Z" fill="white"/>
<path d="M66.6546 14.2115C66.6546 15.795 66.1797 16.9869 65.2312 17.7874C64.3527 18.526 63.1042 18.8961 61.487 18.8961C60.6852 18.8961 59.9991 18.8611 59.4246 18.7912V10.1391C60.1739 10.018 60.9812 9.95607 61.853 9.95607C63.3934 9.95607 64.5545 10.2911 65.3374 10.9611C66.2146 11.7185 66.6546 12.8015 66.6546 14.2115ZM65.1679 14.2505C65.1679 13.224 64.8962 12.4369 64.3527 11.888C63.8091 11.3405 63.0154 11.066 61.97 11.066C61.5261 11.066 61.148 11.0956 60.8345 11.1575V17.735C61.008 17.7618 61.3255 17.7739 61.787 17.7739C62.866 17.7739 63.6989 17.474 64.2854 16.874C64.872 16.2739 65.1679 15.3994 65.1679 14.2505Z" fill="white"/>
<path d="M74.5368 15.5945C74.5368 16.5699 74.2583 17.3691 73.7013 17.996C73.1174 18.6404 72.3439 18.9621 71.378 18.9621C70.4468 18.9621 69.7057 18.6539 69.1526 18.035C68.6011 17.4175 68.3252 16.6385 68.3252 15.6995C68.3252 14.7173 68.6091 13.9115 69.1796 13.2859C69.75 12.6603 70.5169 12.3468 71.4828 12.3468C72.4138 12.3468 73.1619 12.6549 73.7283 13.2724C74.2663 13.8725 74.5368 14.6474 74.5368 15.5945ZM73.0745 15.6403C73.0745 15.055 72.9479 14.5532 72.6964 14.1348C72.4003 13.6289 71.9793 13.376 71.4317 13.376C70.8653 13.376 70.4347 13.6289 70.1388 14.1348C69.8859 14.5532 69.7608 15.0631 69.7608 15.6658C69.7608 16.251 69.8873 16.7529 70.1388 17.1713C70.4443 17.6772 70.8694 17.9301 71.4182 17.9301C71.9564 17.9301 72.3788 17.6731 72.6829 17.1578C72.944 16.7314 73.0745 16.2255 73.0745 15.6403Z" fill="white"/>
<path d="M85.1063 12.476L83.122 18.818H81.8303L81.0083 16.0641C80.7998 15.3765 80.6303 14.6931 80.4984 14.0151H80.4729C80.3504 14.712 80.1809 15.3941 79.963 16.0641L79.0898 18.818H77.7835L75.9175 12.476H77.3664L78.0835 15.491C78.2571 16.204 78.3996 16.8834 78.5141 17.5265H78.5396C78.6445 16.9965 78.8181 16.321 79.0629 15.5044L79.963 12.4773H81.1119L81.9743 15.4398C82.1828 16.1622 82.3523 16.8578 82.4828 17.5278H82.5219C82.6174 16.8754 82.7613 16.1798 82.9524 15.4398L83.7219 12.4773H85.1063V12.476Z" fill="white"/>
<path d="M92.4149 18.818H91.0051V15.1855C91.0051 14.0662 90.58 13.5065 89.7269 13.5065C89.3085 13.5065 88.9708 13.6599 88.7085 13.968C88.4488 14.276 88.317 14.6393 88.317 15.055V18.8166H86.907V14.2882C86.907 13.7312 86.8896 13.1271 86.856 12.4732H88.0951L88.1609 13.4648H88.2C88.364 13.1567 88.6089 12.9024 88.9305 12.6993C89.3125 12.4625 89.7404 12.3427 90.2085 12.3427C90.8005 12.3427 91.293 12.5338 91.6845 12.9172C92.1714 13.3867 92.4149 14.0877 92.4149 15.0187V18.818Z" fill="white"/>
<path d="M96.305 18.818H94.8965V9.56587H96.305V18.818Z" fill="white"/>
<path d="M104.604 15.5945C104.604 16.5699 104.326 17.3691 103.769 17.996C103.185 18.6404 102.41 18.9621 101.445 18.9621C100.513 18.9621 99.7718 18.6539 99.2203 18.035C98.6686 17.4175 98.3928 16.6385 98.3928 15.6995C98.3928 14.7173 98.6768 13.9115 99.2472 13.2859C99.8177 12.6603 100.584 12.3468 101.549 12.3468C102.481 12.3468 103.228 12.6549 103.796 13.2724C104.334 13.8725 104.604 14.6474 104.604 15.5945ZM103.141 15.6403C103.141 15.055 103.014 14.5532 102.763 14.1348C102.468 13.6289 102.046 13.376 101.499 13.376C100.932 13.376 100.501 13.6289 100.206 14.1348C99.9534 14.5532 99.8284 15.0631 99.8284 15.6658C99.8284 16.251 99.9548 16.7529 100.206 17.1713C100.512 17.6772 100.937 17.9301 101.486 17.9301C102.024 17.9301 102.445 17.6731 102.749 17.1578C103.011 16.7314 103.141 16.2255 103.141 15.6403Z" fill="white"/>
<path d="M111.429 18.818H110.163L110.058 18.0875H110.019C109.586 18.6701 108.968 18.9621 108.167 18.9621C107.568 18.9621 107.084 18.7695 106.719 18.3875C106.388 18.0405 106.223 17.6085 106.223 17.0959C106.223 16.321 106.545 15.7304 107.195 15.3214C107.844 14.9124 108.756 14.712 109.93 14.7214V14.603C109.93 13.7675 109.492 13.3505 108.613 13.3505C107.988 13.3505 107.436 13.5079 106.96 13.82L106.673 12.8944C107.263 12.5298 107.99 12.3468 108.849 12.3468C110.506 12.3468 111.338 13.2213 111.338 14.9703V17.3058C111.338 17.9395 111.369 18.444 111.429 18.818ZM109.965 16.6385V15.6605C108.41 15.6335 107.632 16.06 107.632 16.9385C107.632 17.2695 107.721 17.5171 107.903 17.6825C108.085 17.848 108.316 17.9301 108.592 17.9301C108.901 17.9301 109.191 17.8319 109.454 17.6368C109.719 17.4404 109.882 17.1915 109.943 16.8861C109.957 16.8174 109.965 16.734 109.965 16.6385Z" fill="white"/>
<path d="M119.44 18.818H118.189L118.123 17.7995H118.084C117.685 18.5744 117.004 18.9619 116.047 18.9619C115.283 18.9619 114.647 18.6619 114.142 18.0618C113.638 17.4619 113.386 16.6829 113.386 15.7263C113.386 14.6998 113.659 13.8684 114.208 13.2334C114.74 12.6414 115.391 12.3454 116.166 12.3454C117.017 12.3454 117.613 12.632 117.953 13.2064H117.979V9.56587H119.391V17.1094C119.391 17.7269 119.407 18.296 119.44 18.818ZM117.979 16.1434V15.0859C117.979 14.903 117.966 14.755 117.94 14.642C117.861 14.3029 117.69 14.0177 117.43 13.7876C117.168 13.5576 116.852 13.4419 116.487 13.4419C115.961 13.4419 115.55 13.6504 115.247 14.0688C114.947 14.4872 114.795 15.0213 114.795 15.6738C114.795 16.3008 114.939 16.8094 115.228 17.2008C115.533 17.6179 115.945 17.8265 116.46 17.8265C116.923 17.8265 117.293 17.6529 117.574 17.3045C117.846 16.9828 117.979 16.5954 117.979 16.1434Z" fill="white"/>
<path d="M131.5 15.5945C131.5 16.5699 131.221 17.3691 130.664 17.996C130.08 18.6404 129.308 18.9621 128.341 18.9621C127.411 18.9621 126.67 18.6539 126.115 18.035C125.564 17.4175 125.288 16.6385 125.288 15.6995C125.288 14.7173 125.572 13.9115 126.142 13.2859C126.713 12.6603 127.48 12.3468 128.447 12.3468C129.377 12.3468 130.126 12.6549 130.691 13.2724C131.229 13.8725 131.5 14.6474 131.5 15.5945ZM130.039 15.6403C130.039 15.055 129.912 14.5532 129.66 14.1348C129.363 13.6289 128.943 13.376 128.394 13.376C127.829 13.376 127.399 13.6289 127.102 14.1348C126.849 14.5532 126.724 15.0631 126.724 15.6658C126.724 16.251 126.85 16.7529 127.102 17.1713C127.407 17.6772 127.832 17.9301 128.381 17.9301C128.919 17.9301 129.343 17.6731 129.647 17.1578C129.907 16.7314 130.039 16.2255 130.039 15.6403Z" fill="white"/>
<path d="M139.08 18.818H137.671V15.1855C137.671 14.0662 137.246 13.5065 136.392 13.5065C135.974 13.5065 135.636 13.6599 135.375 13.968C135.114 14.276 134.983 14.6393 134.983 15.055V18.8166H133.572V14.2882C133.572 13.7312 133.556 13.1271 133.522 12.4732H134.76L134.826 13.4648H134.865C135.03 13.1567 135.275 12.9024 135.595 12.6993C135.979 12.4625 136.405 12.3427 136.875 12.3427C137.466 12.3427 137.958 12.5338 138.349 12.9172C138.838 13.3867 139.08 14.0877 139.08 15.0187V18.818Z" fill="white"/>
<path d="M148.568 13.5321H147.015V16.6129C147.015 17.396 147.291 17.7874 147.837 17.7874C148.09 17.7874 148.3 17.7659 148.465 17.7216L148.502 18.7912C148.223 18.8961 147.857 18.9486 147.407 18.9486C146.85 18.9486 146.416 18.7791 146.103 18.44C145.788 18.1009 145.632 17.5306 145.632 16.7301V13.5321H144.705V12.476H145.632V11.3135L147.014 10.8965V12.4746H148.566V13.5321H148.568Z" fill="white"/>
<path d="M156.033 18.818H154.621V15.2123C154.621 14.0756 154.196 13.5065 153.345 13.5065C152.691 13.5065 152.245 13.8361 152 14.4953C151.957 14.6339 151.933 14.8034 151.933 15.0025V18.8166H150.525V9.56587H151.933V13.3881H151.96C152.404 12.6925 153.041 12.3454 153.866 12.3454C154.45 12.3454 154.933 12.5364 155.316 12.9199C155.794 13.3975 156.033 14.1078 156.033 15.0469V18.818Z" fill="white"/>
<path d="M163.732 15.3469C163.732 15.5998 163.714 15.8124 163.681 15.9859H159.452C159.47 16.6129 159.673 17.0904 160.064 17.4214C160.422 17.7175 160.884 17.8654 161.448 17.8654C162.074 17.8654 162.644 17.7659 163.159 17.5654L163.38 18.5448C162.777 18.8059 162.07 18.9363 161.25 18.9363C160.268 18.9363 159.494 18.6471 158.934 18.0686C158.373 17.49 158.094 16.7137 158.094 15.7398C158.094 14.7832 158.353 13.9867 158.877 13.3517C159.423 12.6736 160.162 12.3346 161.094 12.3346C162.007 12.3346 162.7 12.6736 163.168 13.3517C163.546 13.8899 163.732 14.5558 163.732 15.3469ZM162.387 14.9823C162.397 14.5639 162.305 14.2033 162.114 13.8993C161.869 13.5078 161.497 13.3113 160.993 13.3113C160.533 13.3113 160.157 13.5024 159.87 13.8858C159.637 14.1912 159.498 14.5558 159.452 14.9823H162.387Z" fill="white"/>
</g>
<defs>
<clipPath id="clip0_1549_38">
<rect width="183.135" height="56" fill="white" transform="translate(0.555664)"/>
</clipPath>
</defs>
</svg>
