<svg width="19" height="19" viewBox="0 0 19 19" fill="none" xmlns="http://www.w3.org/2000/svg">
<path d="M16.7852 0.125H15.7598C16.4922 0.40332 16.873 1.13086 16.873 2.20996V16.7949C16.873 17.874 16.5312 18.6162 15.7598 18.8799H16.7852C17.9424 18.8799 18.875 17.9424 18.875 16.7949V2.20996C18.875 1.0625 17.9424 0.125 16.7852 0.125ZM13.8701 0.134765C13.8018 0.129883 13.7334 0.125 13.665 0.125H2.20996C1.0625 0.125 0.125 1.0625 0.125 2.20996V16.7949C0.125 17.9424 1.0625 18.8799 2.20996 18.8799H13.6699C13.7383 18.8799 13.8066 18.875 13.875 18.8701C14.9248 18.7676 15.7549 17.874 15.7549 16.7949V2.20996C15.75 1.13086 14.9199 0.237305 13.8701 0.134765ZM7.15625 9.5L4.42188 7.9375L1.6875 9.5V1.6875H7.15625V9.5Z" fill="#FD8F25"/>
</svg>
