<svg width="188" height="56" viewBox="0 0 188 56" fill="none" xmlns="http://www.w3.org/2000/svg">
<g clip-path="url(#clip0_388_225)">
<path fill-rule="evenodd" clip-rule="evenodd" d="M178.661 54.7206H8.79583C5.04955 54.7206 1.99854 51.6697 1.99854 47.9537V7.35222C1.99854 3.62282 5.04955 0.585304 8.79583 0.585304H178.661C182.404 0.585304 185.458 3.62282 185.458 7.35222V47.9537C185.458 51.6697 182.404 54.7206 178.661 54.7206Z" fill="black"/>
<path fill-rule="evenodd" clip-rule="evenodd" d="M178.661 1.66868C181.803 1.66868 184.374 4.22358 184.374 7.35222V47.9537C184.374 51.0824 181.82 53.6373 178.661 53.6373H8.79583C5.65368 53.6373 3.08192 51.0824 3.08192 47.9537V7.35222C3.08192 4.22358 5.63681 1.66868 8.79583 1.66868H178.661ZM178.661 0.585304H8.79583C5.04955 0.585304 1.99854 3.63632 1.99854 7.35222V47.9537C1.99854 51.6832 5.04955 54.7206 8.79583 54.7206H178.661C182.404 54.7206 185.458 51.6832 185.458 47.9537V7.35222C185.458 3.63632 182.404 0.585304 178.661 0.585304Z" fill="#A6A6A6"/>
<path d="M98.6462 18.4932C97.421 18.4932 96.3883 18.0645 95.5715 17.2208C94.7615 16.4007 94.3092 15.27 94.3295 14.1158C94.3295 12.8839 94.748 11.841 95.5715 11.0142C96.3848 10.1704 97.4177 9.74176 98.6429 9.74176C99.8544 9.74176 100.887 10.1704 101.717 11.0142C102.541 11.868 102.959 12.9109 102.959 14.1158C102.946 15.3511 102.527 16.3939 101.717 17.2174C100.904 18.0679 99.8714 18.4932 98.6462 18.4932ZM62.1926 18.4932C60.9944 18.4932 59.9549 18.0714 59.1044 17.2377C58.2607 16.4074 57.832 15.3578 57.832 14.1192C57.832 12.8805 58.2607 11.8309 59.1044 11.0007C59.9381 10.167 60.9776 9.74513 62.1926 9.74513C62.7865 9.74513 63.3638 9.86326 63.9173 10.1029C64.4606 10.3358 64.9027 10.653 65.2301 11.0411L65.3111 11.139L64.3964 12.0368L64.302 11.9254C63.7856 11.3112 63.0938 11.0108 62.1791 11.0108C61.3623 11.0108 60.6502 11.301 60.0629 11.8748C59.4724 12.4519 59.1719 13.2079 59.1719 14.1225C59.1719 15.0372 59.4724 15.7932 60.0629 16.3703C60.6502 16.9441 61.3623 17.2344 62.1791 17.2344C63.0499 17.2344 63.7823 16.9441 64.3526 16.3703C64.6901 16.0328 64.8994 15.5603 64.9735 14.9629H62.0407V13.7007H66.2325L66.2493 13.8154C66.2797 14.028 66.3101 14.2474 66.3101 14.4499C66.3101 15.6143 65.9591 16.5559 65.2638 17.2512C64.4741 18.0747 63.4413 18.4932 62.1926 18.4932ZM110.661 18.3143H109.369L105.41 11.9794L105.444 13.1202V18.3109H104.151V9.92402H105.626L105.666 9.98814L109.389 15.9552L109.355 14.8178V9.92402H110.661V18.3143ZM88.9329 18.3143H87.6234V11.1863H85.3519V9.92402H91.2009V11.1863H88.9294V18.3143H88.9329ZM84.2855 18.3143H82.9794V9.92402H84.2855V18.3143ZM76.9448 18.3143H75.6387V11.1863H73.3673V9.92402H79.2162V11.1863H76.9448V18.3143ZM72.5404 18.3008H67.5318V9.92402H72.5404V11.1863H68.8413V13.488H72.1792V14.7368H68.8413V17.0385H72.5404V18.3008ZM96.53 16.3534C97.1139 16.9373 97.8227 17.2309 98.6462 17.2309C99.4933 17.2309 100.185 16.9441 100.762 16.3534C101.336 15.7797 101.626 15.0271 101.626 14.1192C101.626 13.2113 101.336 12.4553 100.766 11.8849C100.182 11.301 99.4697 11.0074 98.6495 11.0074C97.8024 11.0074 97.1106 11.2943 96.5368 11.8849C95.963 12.4587 95.6727 13.2113 95.6727 14.1192C95.6727 15.0271 95.9597 15.7831 96.53 16.3534Z" fill="white"/>
<path fill-rule="evenodd" clip-rule="evenodd" d="M94.2072 30.0289C91.0178 30.0289 88.4325 32.4488 88.4325 35.7867C88.4325 39.0942 91.0346 41.5444 94.2072 41.5444C97.3966 41.5444 99.9818 39.1077 99.9818 35.7867C99.9818 32.4488 97.3966 30.0289 94.2072 30.0289ZM94.2072 39.263C92.4623 39.263 90.9604 37.8185 90.9604 35.7733C90.9604 33.6976 92.4656 32.2834 94.2072 32.2834C95.952 32.2834 97.454 33.6976 97.454 35.7733C97.4573 37.8319 95.952 39.263 94.2072 39.263ZM81.6082 30.0289C78.4188 30.0289 75.8336 32.4488 75.8336 35.7867C75.8336 39.0942 78.4356 41.5444 81.6082 41.5444C84.7975 41.5444 87.3829 39.1077 87.3829 35.7867C87.3829 32.4488 84.7942 30.0289 81.6082 30.0289ZM81.6082 39.263C79.8633 39.263 78.3615 37.8185 78.3615 35.7733C78.3615 33.6976 79.8666 32.2834 81.6082 32.2834C83.353 32.2834 84.8549 33.6976 84.8549 35.7733C84.8549 37.8319 83.353 39.263 81.6082 39.263ZM66.6163 31.7873V34.224H72.4653C72.2864 35.591 71.8341 36.6001 71.1423 37.2919C70.285 38.1492 68.9619 39.0807 66.6299 39.0807C63.0355 39.0807 60.2241 36.1783 60.2241 32.5838C60.2241 28.9894 63.0355 26.0869 66.6299 26.0869C68.5705 26.0869 69.9846 26.8531 71.0342 27.8318L72.7622 26.1037C71.3042 24.7066 69.3636 23.6367 66.6434 23.6367C61.7125 23.6367 57.5747 27.6529 57.5747 32.5704C57.5747 37.5012 61.709 41.504 66.6434 41.504C69.3063 41.504 71.3042 40.6333 72.8837 38.9929C74.4937 37.383 75.0033 35.1117 75.0033 33.2791C75.0033 32.7087 74.9594 32.1958 74.8683 31.7603H66.613C66.6163 31.757 66.6163 31.7873 66.6163 31.7873ZM127.937 33.6841C127.455 32.3915 125.996 30.0154 123.006 30.0154C120.043 30.0154 117.579 32.3476 117.579 35.7733C117.579 39.0064 120.016 41.531 123.293 41.531C125.926 41.531 127.458 39.9212 128.089 38.9761L126.135 37.6667C125.487 38.6285 124.586 39.2596 123.307 39.2596C122.014 39.2596 121.109 38.6724 120.509 37.5147L128.207 34.3253C128.207 34.3288 127.937 33.6841 127.937 33.6841ZM120.087 35.6078C120.026 33.3837 121.815 32.2531 123.094 32.2531C124.103 32.2531 124.943 32.7493 125.23 33.4715L120.087 35.6078ZM113.833 41.1868H116.361V24.2712H113.833V41.1868ZM109.682 31.3081H109.591C109.02 30.6297 107.937 30.0154 106.553 30.0154C103.681 30.0154 101.035 32.5433 101.035 35.79C101.035 39.0234 103.667 41.5208 106.553 41.5208C107.92 41.5208 109.02 40.9033 109.591 40.2113H109.682V41.0383C109.682 43.2353 108.507 44.42 106.614 44.42C105.065 44.42 104.103 43.3063 103.711 42.3747L101.514 43.2927C102.145 44.8115 103.829 46.6914 106.61 46.6914C109.574 46.6914 112.085 44.9465 112.085 40.6907V30.3597H109.695V31.3081C109.698 31.3081 109.682 31.3081 109.682 31.3081ZM106.779 39.263C105.034 39.263 103.576 37.805 103.576 35.79C103.576 33.7583 105.034 32.2869 106.779 32.2869C108.507 32.2869 109.847 33.7753 109.847 35.79C109.864 37.805 108.51 39.263 106.779 39.263ZM139.773 24.2712H133.729V41.1868H136.257V34.781H139.777C142.575 34.781 145.325 32.7526 145.325 29.5327C145.325 26.313 142.585 24.2712 139.773 24.2712ZM139.847 32.4184H136.253V26.6135H139.847C141.741 26.6135 142.811 28.176 142.811 29.5159C142.811 30.8424 141.727 32.4184 139.847 32.4184ZM155.457 29.9986C153.621 29.9986 151.728 30.812 150.945 32.5838L153.185 33.5154C153.668 32.5838 154.552 32.2666 155.487 32.2666C156.796 32.2666 158.119 33.0495 158.151 34.4468V34.6257C157.698 34.3692 156.706 33.9778 155.517 33.9778C153.097 33.9778 150.644 35.3007 150.644 37.7814C150.644 40.0527 152.629 41.5107 154.839 41.5107C156.538 41.5107 157.471 40.7447 158.056 39.857H158.146V41.1665H160.583V34.6864C160.583 31.6692 158.343 29.9986 155.457 29.9986ZM155.139 39.263C154.313 39.263 153.155 38.8579 153.155 37.8185C153.155 36.509 154.6 36.0128 155.832 36.0128C156.945 36.0128 157.471 36.2524 158.133 36.5833C157.951 38.1019 156.669 39.2495 155.139 39.263ZM169.474 30.3597L166.571 37.6969H166.48L163.473 30.3597H160.753L165.265 40.6163L162.693 46.3168H165.325L172.268 30.3597H169.474ZM146.719 41.1868H149.247V24.2712H146.719V41.1868Z" fill="white"/>
<path fill-rule="evenodd" clip-rule="evenodd" d="M16.1189 10.7812C15.7274 11.2031 15.5012 11.8477 15.5012 12.6915V42.6178C15.5012 43.4616 15.7274 44.1062 16.1324 44.5112L16.237 44.6023L33.0041 27.8352V27.4606L16.2235 10.6901L16.1189 10.7812Z" fill="url(#paint0_linear_388_225)"/>
<path fill-rule="evenodd" clip-rule="evenodd" d="M38.5836 33.4412L32.9912 27.8488V27.4573L38.5836 21.8648L38.7052 21.9391L45.3201 25.6989C47.2135 26.7654 47.2135 28.5272 45.3201 29.6072L38.7052 33.3669L38.5836 33.4412Z" fill="url(#paint1_linear_388_225)"/>
<path fill-rule="evenodd" clip-rule="evenodd" d="M38.7045 33.3669L32.9907 27.6531L16.1189 44.5247C16.7365 45.1863 17.7726 45.2606 18.9303 44.616L38.7045 33.3669Z" fill="url(#paint2_linear_388_225)"/>
<path fill-rule="evenodd" clip-rule="evenodd" d="M38.7045 21.9391L18.9303 10.707C17.7726 10.0455 16.7332 10.1366 16.1189 10.7981L32.9907 27.653L38.7045 21.9391Z" fill="url(#paint3_linear_388_225)"/>
<path opacity="0.2" fill-rule="evenodd" clip-rule="evenodd" d="M38.5842 33.2454L18.945 44.4032C17.848 45.0343 16.8694 44.9904 16.2382 44.4166L16.1335 44.5214L16.2382 44.6125C16.8694 45.1828 17.848 45.2301 18.945 44.599L38.7192 33.3669L38.5842 33.2454Z" fill="black"/>
<path opacity="0.12" fill-rule="evenodd" clip-rule="evenodd" d="M45.3199 29.4114L38.5664 33.2454L38.6879 33.3669L45.3029 29.6072C46.2513 29.0672 46.7171 28.3584 46.7171 27.6531C46.6596 28.301 46.1771 28.9152 45.3199 29.4114Z" fill="black"/>
<path opacity="0.25" fill-rule="evenodd" clip-rule="evenodd" d="M18.9302 10.9027L45.3196 25.8946C46.1768 26.3772 46.6595 27.0083 46.7336 27.653C46.7336 26.9477 46.2679 26.2389 45.3196 25.6989L18.9302 10.707C17.0368 9.6236 15.5012 10.5281 15.5012 12.6915V12.8872C15.5012 10.7205 17.0368 9.83286 18.9302 10.9027Z" fill="white"/>
</g>
<defs>
<linearGradient id="paint0_linear_388_225" x1="31.5001" y1="12.3686" x2="4.64209" y2="19.5249" gradientUnits="userSpaceOnUse">
<stop stop-color="#00A0FF"/>
<stop offset="0.00657" stop-color="#00A1FF"/>
<stop offset="0.2601" stop-color="#00BEFF"/>
<stop offset="0.5122" stop-color="#00D2FF"/>
<stop offset="0.7604" stop-color="#00DFFF"/>
<stop offset="1" stop-color="#00E3FF"/>
</linearGradient>
<linearGradient id="paint1_linear_388_225" x1="47.7893" y1="27.6531" x2="15.0417" y2="27.6531" gradientUnits="userSpaceOnUse">
<stop stop-color="#FFE000"/>
<stop offset="0.4087" stop-color="#FFBD00"/>
<stop offset="0.7754" stop-color="#FFA500"/>
<stop offset="1" stop-color="#FF9C00"/>
</linearGradient>
<linearGradient id="paint2_linear_388_225" x1="35.5976" y1="30.7622" x2="14.0361" y2="67.052" gradientUnits="userSpaceOnUse">
<stop stop-color="#FF3A44"/>
<stop offset="1" stop-color="#C31162"/>
</linearGradient>
<linearGradient id="paint3_linear_388_225" x1="11.8704" y1="0.827288" x2="21.4898" y2="17.0349" gradientUnits="userSpaceOnUse">
<stop stop-color="#32A071"/>
<stop offset="0.0685" stop-color="#2DA771"/>
<stop offset="0.4762" stop-color="#15CF74"/>
<stop offset="0.8009" stop-color="#06E775"/>
<stop offset="1" stop-color="#00F076"/>
</linearGradient>
<clipPath id="clip0_388_225">
<rect width="184.649" height="56" fill="white" transform="translate(1.59937)"/>
</clipPath>
</defs>
</svg>
