<svg width="274" height="53" viewBox="0 0 274 53" fill="none" xmlns="http://www.w3.org/2000/svg">
<path d="M20.8 41.664C19.776 40.2987 18.4533 38.4 16.832 35.968C5.61067 34.8587 0 32.512 0 28.928C0 28.1173 0.405333 27.456 1.216 26.944C2.06933 26.432 3.34933 26.176 5.056 26.176C9.32267 26.176 13.568 28.8853 17.792 34.304C22.0587 34.7307 26.9013 34.944 32.32 34.944H33.024C38.4853 31.6587 43.5627 28.352 48.256 25.024C50.176 21.5253 51.84 18.6453 53.248 16.384C54.656 14.08 56.3627 11.6907 58.368 9.216C62.336 4.18133 66.5173 1.664 70.912 1.664C72.064 1.664 72.64 2.176 72.64 3.2C72.64 5.67466 70.592 8.91733 66.496 12.928C62.4 16.9387 56.96 21.248 50.176 25.856C48.128 29.7813 46.592 32.64 45.568 34.432C51.5413 33.9627 55.8507 33.2373 58.496 32.256H58.688C58.8587 32.256 58.944 32.384 58.944 32.64C58.944 32.8533 58.7947 33.1733 58.496 33.6C55.296 34.5813 50.688 35.3493 44.672 35.904C42.368 39.872 40.128 42.9653 37.952 45.184C35.8187 47.36 33.664 48.448 31.488 48.448C27.9893 48.448 24.6827 46.5067 21.568 42.624C15.4667 45.696 10.0693 48.0427 5.376 49.664C4.736 49.8773 3.98933 49.984 3.136 49.984C2.32533 49.984 1.92 49.664 1.92 49.024C1.92 48.6827 2.09067 48.3627 2.432 48.064C2.77333 47.808 3.22133 47.68 3.776 47.68C7.18933 47.68 12.864 45.6747 20.8 41.664ZM33.024 36.544C29.7813 38.3787 26.5813 40.1067 23.424 41.728C26.2827 45.2693 28.8853 47.04 31.232 47.04C32.9813 47.04 34.7093 46.1013 36.416 44.224C38.1653 42.3467 40.0853 39.6373 42.176 36.096C39.5733 36.3093 36.5227 36.4587 33.024 36.544ZM69.12 3.2C66.176 3.2 63.2107 5.16266 60.224 9.088C57.7493 12.416 55.04 16.8107 52.096 22.272C57.472 18.304 61.7813 14.6987 65.024 11.456C68.2667 8.17067 69.888 5.632 69.888 3.84C69.888 3.41333 69.632 3.2 69.12 3.2ZM3.072 28.672C3.072 31.104 7.18933 32.8747 15.424 33.984C12.096 29.5467 8.74667 27.328 5.376 27.328C3.84 27.328 3.072 27.776 3.072 28.672ZM22.656 40.768C25.3013 39.36 27.84 37.952 30.272 36.544H30.016C26.304 36.544 22.72 36.416 19.264 36.16C20.8853 38.4213 22.016 39.9573 22.656 40.768ZM46.528 28.288C44.224 29.824 40.64 32.0427 35.776 34.944C39.0613 34.8587 41.472 34.752 43.008 34.624C43.8187 33.216 44.992 31.104 46.528 28.288ZM59.073 47.168C59.073 46.528 59.3717 45.696 59.969 44.672C60.609 43.648 60.9503 43.0507 60.993 42.88C61.0357 42.7093 60.993 42.624 60.865 42.624C60.737 42.624 60.545 42.752 60.289 43.008C60.0757 43.2213 58.7743 44.1173 56.385 45.696C54.0383 47.232 52.417 48 51.521 48C50.9237 48 50.625 47.616 50.625 46.848C50.625 46.08 51.8197 44.096 54.209 40.896C56.5983 37.696 58.2837 36.096 59.265 36.096C59.4783 36.096 59.6703 36.2027 59.841 36.416C60.0543 36.5867 60.161 36.736 60.161 36.864C60.161 36.9493 59.0517 38.2507 56.833 40.768C54.657 43.2853 53.569 44.9067 53.569 45.632C53.569 45.8027 53.6543 45.888 53.825 45.888C54.6357 45.888 56.385 44.8 59.073 42.624C61.761 40.448 63.6597 38.7627 64.769 37.568C65.921 36.3733 66.817 35.776 67.457 35.776C68.097 35.776 68.417 36.0533 68.417 36.608C68.417 36.9493 68.289 37.2907 68.033 37.632C67.777 37.9733 67.2863 38.592 66.561 39.488C65.8783 40.3413 65.2383 41.152 64.641 41.92C62.977 44.0533 62.145 45.3973 62.145 45.952C62.145 46.464 62.3583 46.72 62.785 46.72C63.2543 46.72 64.3637 46.1227 66.113 44.928C69.3557 42.7947 72.321 40.64 75.009 38.464L76.417 37.312C76.7157 37.0987 76.9717 36.992 77.185 36.992C77.3983 36.992 77.505 37.12 77.505 37.376V37.568C77.6757 37.568 76.5237 38.5067 74.049 40.384C71.617 42.2613 68.993 44.1387 66.177 46.016C63.4037 47.8933 61.6543 48.832 60.929 48.832C59.6917 48.832 59.073 48.2773 59.073 47.168ZM88.965 37.376C89.3063 37.1627 89.5837 37.056 89.797 37.056C90.053 37.056 90.181 37.2053 90.181 37.504V37.632C86.8957 40.4053 83.4183 43.008 79.749 45.44C76.1223 47.872 73.8183 49.088 72.837 49.088C71.8557 49.088 71.0237 48.896 70.341 48.512C69.701 48.1707 69.381 47.7653 69.381 47.296C69.381 46.8267 69.509 46.4427 69.765 46.144C70.021 45.8027 70.2557 45.632 70.469 45.632C70.6823 45.632 71.0237 45.9733 71.493 46.656C72.005 47.296 72.4957 47.616 72.965 47.616C73.9463 47.616 74.7143 46.5707 75.269 44.48C75.8237 42.3893 76.101 40.96 76.101 40.192C76.101 39.3813 76.037 38.976 75.909 38.976C75.8237 38.976 75.7383 39.0187 75.653 39.104L73.797 40.576L73.541 39.616C76.229 37.4827 77.7863 36.0533 78.213 35.328C78.469 34.6453 78.8317 34.304 79.301 34.304C79.5997 34.304 79.749 34.4107 79.749 34.624C79.749 34.8373 79.5997 35.3067 79.301 36.032C79.0023 36.7147 78.597 38.2933 78.085 40.768C77.6157 43.2427 77.381 44.672 77.381 45.056C77.381 45.44 77.4877 45.632 77.701 45.632C80.6877 43.7973 83.845 41.5147 87.173 38.784L88.965 37.376ZM109.779 37.312C110.078 37.0987 110.355 36.992 110.611 36.992C110.867 36.992 110.995 37.12 110.995 37.376V37.568C107.624 40.384 104.318 42.9013 101.075 45.12C97.8323 47.5947 95.571 48.832 94.291 48.832C93.0537 48.832 92.435 48.32 92.435 47.296C92.435 46.1867 93.2457 44.3093 94.867 41.664C96.4883 39.0187 97.299 37.6107 97.299 37.44C97.299 37.2267 97.2137 37.12 97.043 37.12C96.4883 37.12 94.7817 38.3573 91.923 40.832C89.107 43.264 86.6323 45.5253 84.499 47.616C83.6883 48.3413 83.1123 48.704 82.771 48.704C82.4723 48.704 82.323 48.4693 82.323 48C82.323 47.5307 82.6003 46.9333 83.155 46.208L105.491 12.16C105.96 11.4347 106.579 11.072 107.347 11.072C108.158 11.072 108.563 11.328 108.563 11.84C108.563 12.1387 108.435 12.4587 108.179 12.8C107.966 13.1413 106.536 15.1893 103.891 18.944C101.246 22.656 99.7097 24.8533 99.283 25.536C98.899 26.2187 97.043 29.0347 93.715 33.984C90.4297 38.9333 88.6803 41.5573 88.467 41.856C88.2963 42.112 88.211 42.3253 88.211 42.496C88.211 42.6667 88.275 42.752 88.403 42.752C88.5737 42.752 88.6803 42.7307 88.723 42.688C90.0883 41.3227 91.9443 39.744 94.291 37.952C96.6803 36.1173 98.323 35.2 99.219 35.2C99.5603 35.2 99.859 35.328 100.115 35.584C100.371 35.7973 100.499 36.1813 100.499 36.736C100.499 37.248 99.667 38.6987 98.003 41.088C96.339 43.4347 95.507 44.9707 95.507 45.696C95.507 46.3787 95.7203 46.72 96.147 46.72C96.6163 46.72 97.747 46.1227 99.539 44.928C102.739 42.7947 105.683 40.64 108.371 38.464L109.779 37.312ZM116.323 40.32C116.067 40.32 115.939 40.2347 115.939 40.064C115.939 39.8507 116.088 39.616 116.387 39.36C117.795 38.208 118.499 37.1627 118.499 36.224C118.499 35.6267 117.965 35.2853 116.899 35.2C114.979 35.2427 112.675 36.6293 109.987 39.36C107.341 42.0907 106.019 44.1387 106.019 45.504C106.019 45.9733 106.275 46.208 106.786 46.208C107.341 46.208 108.067 45.8453 108.963 45.12C109.773 44.608 111.288 43.328 113.507 41.28C114.019 40.768 114.509 40.512 114.979 40.512C115.576 40.512 115.875 40.7893 115.875 41.344C115.875 41.5573 115.811 41.728 115.683 41.856C115.555 41.984 115.32 42.2613 114.979 42.688C114.637 43.072 114.339 43.4347 114.083 43.776C113.315 44.8853 112.931 45.6107 112.931 45.952C112.931 46.8053 113.272 47.232 113.955 47.232C114.851 47.232 116.536 46.4213 119.01 44.8C121.485 43.136 123.747 41.472 125.795 39.808L128.867 37.376C129.165 37.1627 129.443 37.056 129.699 37.056C129.955 37.056 130.083 37.2053 130.083 37.504V37.632C126.797 40.4053 123.32 43.008 119.651 45.44C116.024 47.872 113.635 49.088 112.483 49.088C111.117 49.088 110.435 48.3627 110.435 46.912C110.435 46.5707 110.499 46.2507 110.627 45.952C110.755 45.6533 110.819 45.44 110.819 45.312C110.819 45.184 110.776 45.0987 110.691 45.056C110.563 45.056 109.731 45.632 108.195 46.784C106.701 47.936 105.379 48.512 104.227 48.512C103.117 48.512 102.562 47.9147 102.562 46.72C102.562 45.5253 103.352 43.9253 104.931 41.92C106.552 39.872 108.707 38.016 111.395 36.352C114.083 34.688 116.707 33.856 119.267 33.856C119.864 33.856 120.355 34.0053 120.739 34.304C121.165 34.6027 121.378 35.072 121.378 35.712C121.378 36.3093 120.76 37.2267 119.523 38.464C118.285 39.7013 117.219 40.32 116.323 40.32ZM154.84 37.568C145.837 45.0773 140.269 48.832 138.135 48.832C136.898 48.832 136.28 48.32 136.28 47.296C136.28 46.272 136.728 45.056 137.624 43.648C138.562 42.24 139.48 41.0027 140.376 39.936C141.314 38.8267 141.784 38.1653 141.784 37.952C141.784 37.7387 141.72 37.632 141.592 37.632C137.624 40.2773 135.256 41.8987 134.488 42.496C133.762 43.0933 132.546 44.0747 130.84 45.44C129.176 46.8053 128.088 47.6587 127.576 48C127.064 48.3413 126.509 48.512 125.911 48.512C125.314 48.512 125.016 48.256 125.016 47.744C125.016 47.1467 126.21 45.2693 128.6 42.112C130.904 38.9547 132.056 37.184 132.056 36.8C132.056 36.7147 131.97 36.672 131.8 36.672C131.672 36.672 129.837 37.9733 126.296 40.576L126.04 39.616C129.069 37.184 131.117 35.6267 132.184 34.944C133.25 34.2613 134.104 33.92 134.744 33.92C135.426 33.92 135.768 34.24 135.768 34.88C135.768 35.3067 134.552 37.056 132.12 40.128C129.73 43.1573 128.536 44.8 128.536 45.056C128.536 45.2693 128.6 45.376 128.728 45.376C128.898 45.376 131.33 43.6693 136.024 40.256C140.76 36.8 143.64 35.072 144.664 35.072C144.962 35.072 145.24 35.2 145.496 35.456C145.794 35.6693 145.944 35.8827 145.944 36.096C145.944 36.608 144.813 38.3147 142.552 41.216C140.29 44.0747 139.16 45.696 139.16 46.08C139.16 46.464 139.416 46.656 139.928 46.656C140.482 46.656 141.634 46.08 143.384 44.928C146.584 42.8373 149.528 40.6827 152.216 38.464L153.624 37.312C153.922 37.0987 154.2 36.992 154.456 36.992C154.712 36.992 154.84 37.12 154.84 37.376V37.568ZM188.039 20.864L178.887 20.416C175.132 20.416 171.399 20.5653 167.687 20.864L168.007 22.144C168.007 22.6133 166.62 24.4053 163.847 27.52C161.074 30.592 158.3 33.9627 155.527 37.632C152.754 41.2587 151.367 43.9467 151.367 45.696C151.367 46.3787 151.602 46.72 152.071 46.72C152.583 46.72 153.714 46.1227 155.463 44.928C158.706 42.7947 161.671 40.64 164.359 38.464L165.767 37.312C166.066 37.0987 166.322 36.992 166.535 36.992C166.748 36.992 166.855 37.12 166.855 37.376V37.568C167.026 37.568 165.874 38.5067 163.399 40.384C160.967 42.2613 158.343 44.1387 155.527 46.016C152.754 47.8933 151.004 48.832 150.279 48.832C149.042 48.832 148.423 48.2773 148.423 47.168C148.423 45.5467 149.319 43.3067 151.111 40.448C152.946 37.5893 154.93 34.9013 157.063 32.384C159.239 29.824 161.287 27.4133 163.207 25.152C165.17 22.8907 166.236 21.504 166.407 20.992C161.714 21.4187 158.108 21.9307 155.591 22.528L154.311 22.784C153.97 22.8267 153.799 23.1467 153.799 23.744C153.799 24 153.5 24.128 152.903 24.128C152.306 24.128 151.559 24 150.663 23.744C149.81 23.4453 149.383 23.04 149.383 22.528C149.383 22.016 149.81 21.6747 150.663 21.504C156.978 20.3947 161.458 19.7333 164.103 19.52C166.748 19.264 168.498 19.1147 169.351 19.072C170.247 18.9867 171.612 18.9227 173.447 18.88C175.324 18.8373 176.583 18.816 177.223 18.816C179.143 18.7307 181.383 18.688 183.943 18.688C186.546 18.688 188.124 18.7947 188.679 19.008C189.234 19.2213 189.511 19.6267 189.511 20.224C189.511 20.6507 189.02 20.864 188.039 20.864ZM171.312 51.264C171.312 49.0027 174.257 44.16 180.145 36.736C186.033 29.2693 192.518 22.3573 199.601 16C200.539 13.6533 201.009 11.7973 201.009 10.432C201.009 4.672 196.123 1.792 186.353 1.792C183.366 1.792 180.721 2.34666 178.417 3.456C177.009 4.13867 176.305 4.992 176.305 6.016C176.305 7.04 177.051 8.10667 178.545 9.216C180.081 10.2827 181.766 11.2427 183.601 12.096C185.435 12.9493 187.099 14.08 188.593 15.488C190.129 16.8533 190.897 18.304 190.897 19.84C190.897 20.6933 190.811 21.3333 190.641 21.76C190.47 22.1867 190.321 22.4 190.193 22.4C189.979 22.4 189.83 22.1013 189.745 21.504C189.745 19.1147 187.953 16.96 184.369 15.04C182.833 14.2293 181.297 13.44 179.76 12.672C176.177 10.752 174.385 8.68267 174.385 6.464C174.385 5.44 174.854 4.544 175.793 3.776C176.731 2.96533 177.926 2.34666 179.377 1.92C182.15 1.152 184.518 0.767998 186.481 0.767998C188.443 0.767998 190.299 0.917332 192.049 1.216C193.798 1.51466 195.611 2.00533 197.489 2.688C199.409 3.37067 200.966 4.43733 202.161 5.888C203.398 7.296 204.017 8.98133 204.017 10.944C204.017 11.2 203.974 11.6693 203.889 12.352C212.806 5.056 219.846 1.408 225.009 1.408C227.142 1.408 228.209 2.304 228.209 4.096C228.209 6.144 226.993 8.832 224.561 12.16C222.171 15.488 219.249 18.4747 215.793 21.12C212.379 23.7227 209.414 25.024 206.897 25.024C203.953 25.024 202.374 23.5093 202.161 20.48C202.161 19.7973 202.374 19.456 202.801 19.456C203.099 19.456 203.377 19.776 203.632 20.416C203.931 21.056 204.465 21.76 205.233 22.528C206.043 23.2533 206.875 23.616 207.729 23.616C209.691 23.616 212.038 22.2933 214.769 19.648C217.499 17.0027 219.782 14.1867 221.617 11.2C223.494 8.17066 224.433 5.99466 224.433 4.672C224.433 3.73333 223.942 3.264 222.961 3.264C218.651 3.264 212.059 7.14666 203.185 14.912C201.777 18.9653 199.046 24.0213 194.993 30.08C190.939 36.096 186.737 41.3653 182.385 45.888C178.033 50.4107 174.854 52.672 172.849 52.672C171.825 52.672 171.312 52.2027 171.312 51.264ZM174.065 50.88C176.155 50.88 179.91 47.296 185.329 40.128C190.747 32.96 195.014 26.0907 198.129 19.52C191.814 25.5787 186.182 31.7653 181.233 38.08C176.283 44.352 173.809 48.512 173.809 50.56C173.809 50.7733 173.894 50.88 174.065 50.88ZM210.01 40.32C209.754 40.32 209.626 40.2347 209.626 40.064C209.626 39.8507 209.775 39.616 210.074 39.36C211.482 38.208 212.186 37.1627 212.186 36.224C212.186 35.6267 211.653 35.2853 210.586 35.2C208.666 35.2427 206.362 36.6293 203.674 39.36C201.029 42.0907 199.706 44.1387 199.706 45.504C199.706 45.9733 199.962 46.208 200.474 46.208C201.029 46.208 201.754 45.8453 202.65 45.12C203.461 44.608 204.975 43.328 207.194 41.28C207.706 40.768 208.197 40.512 208.666 40.512C209.263 40.512 209.562 40.7893 209.562 41.344C209.562 41.5573 209.498 41.728 209.37 41.856C209.242 41.984 209.007 42.2613 208.666 42.688C208.325 43.072 208.026 43.4347 207.77 43.776C207.002 44.8853 206.618 45.6107 206.618 45.952C206.618 46.8053 206.959 47.232 207.642 47.232C208.538 47.232 210.223 46.4213 212.698 44.8C215.173 43.136 217.434 41.472 219.482 39.808L222.554 37.376C222.853 37.1627 223.13 37.056 223.386 37.056C223.642 37.056 223.77 37.2053 223.77 37.504V37.632C220.485 40.4053 217.007 43.008 213.338 45.44C209.711 47.872 207.322 49.088 206.17 49.088C204.805 49.088 204.122 48.3627 204.122 46.912C204.122 46.5707 204.186 46.2507 204.314 45.952C204.442 45.6533 204.506 45.44 204.506 45.312C204.506 45.184 204.463 45.0987 204.378 45.056C204.25 45.056 203.418 45.632 201.882 46.784C200.389 47.936 199.066 48.512 197.914 48.512C196.805 48.512 196.25 47.9147 196.25 46.72C196.25 45.5253 197.039 43.9253 198.618 41.92C200.239 39.872 202.394 38.016 205.082 36.352C207.77 34.688 210.394 33.856 212.954 33.856C213.551 33.856 214.042 34.0053 214.426 34.304C214.853 34.6027 215.066 35.072 215.066 35.712C215.066 36.3093 214.447 37.2267 213.21 38.464C211.973 39.7013 210.906 40.32 210.01 40.32ZM257.102 20.864L247.95 20.416C244.195 20.416 240.462 20.5653 236.75 20.864L237.07 22.144C237.07 22.6133 235.683 24.4053 232.91 27.52C230.136 30.592 227.363 33.9627 224.59 37.632C221.816 41.2587 220.43 43.9467 220.43 45.696C220.43 46.3787 220.664 46.72 221.134 46.72C221.646 46.72 222.776 46.1227 224.526 44.928C227.768 42.7947 230.734 40.64 233.422 38.464L234.83 37.312C235.128 37.0987 235.384 36.992 235.598 36.992C235.811 36.992 235.918 37.12 235.918 37.376V37.568C236.088 37.568 234.936 38.5067 232.462 40.384C230.03 42.2613 227.406 44.1387 224.59 46.016C221.816 47.8933 220.067 48.832 219.342 48.832C218.104 48.832 217.486 48.2773 217.486 47.168C217.486 45.5467 218.382 43.3067 220.174 40.448C222.008 37.5893 223.992 34.9013 226.126 32.384C228.302 29.824 230.35 27.4133 232.27 25.152C234.232 22.8907 235.299 21.504 235.47 20.992C230.776 21.4187 227.171 21.9307 224.654 22.528L223.374 22.784C223.032 22.8267 222.862 23.1467 222.862 23.744C222.862 24 222.563 24.128 221.966 24.128C221.368 24.128 220.622 24 219.726 23.744C218.872 23.4453 218.446 23.04 218.446 22.528C218.446 22.016 218.872 21.6747 219.726 21.504C226.04 20.3947 230.52 19.7333 233.166 19.52C235.811 19.264 237.56 19.1147 238.414 19.072C239.31 18.9867 240.675 18.9227 242.51 18.88C244.387 18.8373 245.646 18.816 246.286 18.816C248.206 18.7307 250.446 18.688 253.006 18.688C255.608 18.688 257.187 18.7947 257.742 19.008C258.296 19.2213 258.574 19.6267 258.574 20.224C258.574 20.6507 258.083 20.864 257.102 20.864ZM241.579 28.672C242.005 28.672 242.325 28.8 242.539 29.056C242.795 29.312 242.923 29.6747 242.923 30.144C242.923 30.6133 242.603 31.2107 241.963 31.936C241.323 32.6613 240.768 33.024 240.299 33.024C239.829 33.024 239.488 32.896 239.275 32.64C239.061 32.3413 238.955 32.0213 238.955 31.68C238.955 31.296 239.296 30.6987 239.979 29.888C240.661 29.0773 241.195 28.672 241.579 28.672ZM246.891 37.312C247.232 37.0987 247.488 36.992 247.659 36.992C247.872 36.992 247.979 37.12 247.979 37.376V37.568C248.149 37.568 246.997 38.5067 244.523 40.384C242.091 42.2613 239.467 44.1387 236.651 46.016C233.877 47.8933 232.128 48.832 231.403 48.832C230.165 48.832 229.547 48.32 229.547 47.296C229.547 46.0587 230.613 43.7333 232.747 40.32C234.88 36.864 236.437 35.136 237.419 35.136C238.144 35.136 238.507 35.4133 238.507 35.968C238.507 36.5227 237.525 38.0373 235.562 40.512C233.6 42.9867 232.619 44.7573 232.619 45.824C232.619 46.4213 232.832 46.72 233.259 46.72C233.728 46.72 234.859 46.1227 236.651 44.928C239.851 42.7947 242.795 40.64 245.483 38.464L246.891 37.312ZM262.217 37.376C262.516 37.1627 262.793 37.056 263.049 37.056C263.305 37.056 263.433 37.2053 263.433 37.504V37.632C258.996 41.3013 255.625 43.8613 253.321 45.312C250.334 47.5733 247.817 48.704 245.769 48.704C243.977 48.704 243.081 47.6373 243.081 45.504C243.081 42.6453 244.916 38.4213 248.585 32.832C252.297 27.2 256.457 22.144 261.065 17.664C265.673 13.184 269.15 10.944 271.497 10.944C272.564 10.944 273.097 11.4133 273.097 12.352C273.097 14.6987 270.281 18.5813 264.649 24C259.06 29.376 253.556 33.9627 248.137 37.76C246.558 40.7893 245.769 43.0933 245.769 44.672C245.769 46.2507 246.324 47.04 247.433 47.04C248.542 47.04 249.993 46.4 251.785 45.12C254.814 43.328 257.758 41.1947 260.617 38.72L262.217 37.376ZM269.897 12.992C268.105 12.992 264.926 15.5733 260.361 20.736C255.796 25.8987 252.02 31.0613 249.033 36.224C253.94 32.7253 258.74 28.4587 263.433 23.424C268.126 18.3467 270.473 15.0613 270.473 13.568C270.473 13.184 270.281 12.992 269.897 12.992Z" fill="white"/>
</svg>
