<svg width="19" height="19" viewBox="0 0 19 19" fill="none" xmlns="http://www.w3.org/2000/svg">
<path d="M9.75195 0.335449C4.7892 0.335449 0.751953 4.3727 0.751953 9.33545C0.751953 14.2982 4.7892 18.3354 9.75195 18.3354C14.7147 18.3354 18.752 14.2982 18.752 9.33545H16.727C16.727 13.1814 13.598 16.3104 9.75195 16.3104C5.90595 16.3104 2.77695 13.1814 2.77695 9.33545C2.77695 5.48945 5.90595 2.36045 9.75195 2.36045V0.335449ZM15.302 2.2727L9.6732 9.30095L7.04295 7.14545L5.54145 8.97245L9.0972 11.8884C9.218 11.9881 9.35743 12.0627 9.50735 12.1079C9.65728 12.1531 9.8147 12.168 9.97045 12.1517C10.1262 12.1355 10.2771 12.0884 10.4145 12.0132C10.5518 11.9379 10.6728 11.8362 10.7705 11.7137L17.1485 3.75095L15.302 2.2727Z" fill="#15CF74"/>
</svg>