<svg width="28" height="28" viewBox="0 0 28 28" fill="none" xmlns="http://www.w3.org/2000/svg">
<path d="M24.6751 7.19829C24.1967 6.94163 23.1934 6.67329 21.8284 7.62996L20.1134 8.84329C19.9851 5.21496 18.4101 3.79163 14.5834 3.79163H7.58341C3.59341 3.79163 2.04175 5.34329 2.04175 9.33329V18.6666C2.04175 21.35 3.50008 24.2083 7.58341 24.2083H14.5834C18.4101 24.2083 19.9851 22.785 20.1134 19.1566L21.8284 20.37C22.5517 20.8833 23.1817 21.0466 23.6834 21.0466C24.1151 21.0466 24.4534 20.9183 24.6751 20.8016C25.1534 20.5566 25.9584 19.8916 25.9584 18.2233V9.77663C25.9584 8.10829 25.1534 7.44329 24.6751 7.19829ZM12.8334 13.2766C11.6317 13.2766 10.6401 12.2966 10.6401 11.0833C10.6401 9.86996 11.6317 8.88996 12.8334 8.88996C14.0351 8.88996 15.0267 9.86996 15.0267 11.0833C15.0267 12.2966 14.0351 13.2766 12.8334 13.2766Z" fill="#FD8F25"/>
</svg>
